<svg xmlns="http://www.w3.org/2000/svg" version="1.0" width="307.000000pt" height="287.000000pt" viewBox="0 0 307.000000 287.000000" preserveAspectRatio="xMidYMid meet">

<g transform="translate(0.000000,287.000000) scale(0.100000,-0.100000)" fill="#f02a2a" stroke="none">
<path d="M1370 2557 c-52 -29 -267 -147 -477 -261 -211 -114 -383 -211 -383 -214 0 -4 100 -65 223 -136 122 -71 285 -166 362 -212 77 -45 212 -123 300 -173 88 -51 168 -101 178 -113 16 -19 17 -56 17 -475 0 -293 -4 -461 -10 -474 -6 -10 -29 -28 -51 -39 l-40 -21 -44 22 c-25 13 -46 23 -47 23 -1 1 -5 192 -8 426 l-5 424 -85 52 c-139 83 -829 484 -845 490 -13 5 -15 -60 -15 -536 0 -344 4 -548 10 -560 9 -17 71 -55 500 -308 80 -47 188 -111 240 -142 200 -119 277 -160 300 -160 13 0 88 38 165 83 77 46 219 130 315 187 565 333 541 318 557 350 10 19 13 151 13 559 0 494 -1 533 -17 527 -17 -7 -97 -53 -378 -216 -277 -162 -259 -154 -297 -134 -58 29 -68 43 -68 94 0 32 5 52 16 61 17 15 172 106 486 286 103 60 187 110 188 113 0 3 -33 23 -72 45 -40 21 -89 47 -108 58 -19 11 -107 59 -195 107 -88 48 -234 127 -325 177 -215 118 -266 143 -287 143 -10 0 -61 -24 -113 -53z" fill="#f02a2a"/>
</g>
</svg>