<svg xmlns="http://www.w3.org/2000/svg" version="1.0" width="500.000000pt" height="500.000000pt" viewBox="0 0 500.000000 500.000000" preserveAspectRatio="xMidYMid meet">

<g transform="translate(0.000000,500.000000) scale(0.100000,-0.100000)" fill="#2a4786" stroke="none">
<path d="M1668 4335 c-137 -37 -263 -127 -341 -242 -79 -114 -90 -162 -147 -608 -28 -220 -103 -789 -166 -1265 -63 -476 -119 -896 -124 -933 -19 -154 32 -300 140 -400 65 -61 134 -92 235 -108 35 -6 434 -9 975 -7 l915 3 66 22 c215 74 379 290 379 503 0 183 -102 331 -275 396 -47 17 -93 19 -707 22 -646 3 -658 3 -658 23 0 11 29 236 65 502 35 265 83 626 105 802 22 176 42 330 45 343 l5 22 648 0 c714 0 707 -1 826 63 125 67 233 198 272 332 25 86 23 214 -6 288 -43 113 -133 199 -247 236 -63 21 -75 21 -1011 20 -742 -1 -957 -4 -994 -14z" fill="#2a4786"/>
<path d="M2773 3105 c-245 -66 -413 -284 -413 -536 0 -142 33 -244 115 -354 171 -229 505 -282 750 -119 192 127 290 404 221 625 -60 193 -227 350 -414 388 -72 15 -196 13 -259 -4z" fill="#2a4786"/>
</g>
</svg>